<svg width="52" height="52" viewBox="0 0 52 52" fill="none" xmlns="http://www.w3.org/2000/svg">
<path d="M2.36373 4.81336C3.66385 4.80804 4.7135 3.74781 4.70819 2.44527C4.70288 1.14273 3.64461 0.0911331 2.34449 0.0964546C1.04436 0.10178 -0.00529099 1.16201 2.28882e-05 2.46455C0.00534058 3.76709 1.0636 4.81868 2.36373 4.81336Z" fill="#178FC1"/>
<path d="M2.46 28.4067C3.76012 28.4013 4.80977 27.3411 4.80445 26.0386C4.79914 24.736 3.74087 23.6844 2.44075 23.6898C1.14062 23.6951 0.0909729 24.7553 0.0962868 26.0579C0.101601 27.3604 1.15987 28.412 2.46 28.4067Z" fill="#178FC1"/>
<path d="M25.9134 4.71692C27.2135 4.7116 28.2631 3.65137 28.2578 2.34883C28.2525 1.0463 27.1942 -0.00530624 25.8941 1.52588e-05C24.594 0.00534058 23.5443 1.06557 23.5497 2.36811C23.555 3.67065 24.6132 4.72224 25.9134 4.71692Z" fill="#178FC1"/>
<path d="M26.0096 28.3102C27.3097 28.3049 28.3594 27.2447 28.3541 25.9421C28.3488 24.6396 27.2905 23.588 25.9904 23.5933C24.6903 23.5987 23.6406 24.6589 23.6459 25.9614C23.6512 27.264 24.7095 28.3156 26.0096 28.3102Z" fill="#178FC1"/>
<path d="M26.1059 51.9035C27.406 51.8982 28.4557 50.838 28.4503 49.5354C28.445 48.2329 27.3868 47.1813 26.0866 47.1866C24.7865 47.192 23.7369 48.2522 23.7422 49.5547C23.7475 50.8573 24.8058 51.9089 26.1059 51.9035Z" fill="#178FC1"/>
<path d="M49.5593 28.2138C50.8594 28.2085 51.909 27.1482 51.9037 25.8457C51.8984 24.5432 50.8401 23.4916 49.54 23.4969C48.2399 23.5022 47.1902 24.5624 47.1955 25.865C47.2009 27.1675 48.2591 28.2191 49.5593 28.2138Z" fill="#178FC1"/>
<path d="M49.6555 51.8071C50.9556 51.8018 52.0053 50.7415 52 49.439C51.9947 48.1365 50.9364 47.0849 49.6363 47.0902C48.3361 47.0955 47.2865 48.1558 47.2918 49.4583C47.2971 50.7608 48.3554 51.8124 49.6555 51.8071Z" fill="#178FC1"/>
<path d="M2.55626 52C3.85638 51.9947 4.90603 50.9344 4.90071 49.6319C4.8954 48.3294 3.83713 47.2778 2.53701 47.2831C1.23688 47.2884 0.187233 48.3486 0.192547 49.6512C0.197861 50.9537 1.25613 52.0053 2.55626 52Z" fill="#178FC1"/>
</svg>
