<svg width="36" height="36" viewBox="0 0 36 36" fill="none" xmlns="http://www.w3.org/2000/svg">
<path d="M33.4247 32.0419C32.5496 32.0455 31.8431 32.7591 31.8467 33.6358C31.8502 34.5125 32.5626 35.2203 33.4376 35.2167C34.3127 35.2131 35.0192 34.4996 35.0156 33.6228C35.012 32.7461 34.2998 32.0383 33.4247 32.0419Z" fill="#178FC1"/>
<path d="M33.3599 16.1618C32.4848 16.1654 31.7783 16.8789 31.7819 17.7557C31.7855 18.6324 32.4978 19.3402 33.3728 19.3366C34.2479 19.333 34.9544 18.6194 34.9508 17.7427C34.9472 16.866 34.235 16.1582 33.3599 16.1618Z" fill="#178FC1"/>
<path d="M17.574 32.1068C16.6989 32.1104 15.9924 32.824 15.996 33.7007C15.9995 34.5774 16.7118 35.2852 17.5869 35.2816C18.462 35.278 19.1685 34.5645 19.1649 33.6877C19.1613 32.811 18.449 32.1032 17.574 32.1068Z" fill="#178FC1"/>
<path d="M17.5092 16.2267C16.6341 16.2303 15.9276 16.9438 15.9312 17.8206C15.9348 18.6973 16.647 19.4051 17.5221 19.4015C18.3972 19.3979 19.1037 18.6843 19.1001 17.8076C19.0965 16.9309 18.3842 16.2231 17.5092 16.2267Z" fill="#178FC1"/>
<path d="M17.4444 0.346542C16.5693 0.350125 15.8628 1.06374 15.8664 1.94045C15.87 2.81716 16.5822 3.52496 17.4573 3.52139C18.3324 3.5178 19.0389 2.80418 19.0353 1.92747C19.0318 1.05077 18.3194 0.342957 17.4444 0.346542Z" fill="#178FC1"/>
<path d="M1.65843 16.2916C0.783345 16.2952 0.0768525 17.0087 0.0804301 17.8855C0.0840066 18.7622 0.796302 19.47 1.67139 19.4664C2.54647 19.4628 3.25297 18.7492 3.24939 17.8725C3.24582 16.9958 2.53352 16.288 1.65843 16.2916Z" fill="#178FC1"/>
<path d="M1.59364 0.411453C0.718559 0.415037 0.012061 1.12865 0.0156385 2.00536C0.0192151 2.88207 0.731517 3.58988 1.6066 3.58629C2.48169 3.58271 3.18818 2.8691 3.1846 1.99239C3.18102 1.11568 2.46873 0.40787 1.59364 0.411453Z" fill="#178FC1"/>
<path d="M33.2951 0.28163C32.42 0.285213 31.7135 0.99883 31.7171 1.87554C31.7207 2.75225 32.433 3.46006 33.308 3.45647C34.1831 3.45289 34.8896 2.73926 34.886 1.86256C34.8824 0.985853 34.1702 0.278046 33.2951 0.28163Z" fill="#178FC1"/>
</svg>
