<svg width="45" height="45" viewBox="0 0 45 45" fill="none" xmlns="http://www.w3.org/2000/svg">
<path d="M45 22.5C45 34.9264 34.9264 45 22.5 45C10.0736 45 0 34.9264 0 22.5C0 10.0736 10.0736 0 22.5 0C34.9264 0 45 10.0736 45 22.5Z" fill="url(#paint0_linear_389_7)"/>
<path fill-rule="evenodd" clip-rule="evenodd" d="M27.9106 24.2058C29.3443 25.1791 30.3489 26.4977 30.3489 28.2558V31.3954H33.4885C34.064 31.3954 34.535 30.9244 34.535 30.3488V28.2558C34.535 25.9744 30.7989 24.6244 27.9106 24.2058Z" fill="#F7F7F7"/>
<path d="M19.8838 23.0233C22.1957 23.0233 24.0699 21.1491 24.0699 18.8372C24.0699 16.5253 22.1957 14.6512 19.8838 14.6512C17.5719 14.6512 15.6978 16.5253 15.6978 18.8372C15.6978 21.1491 17.5719 23.0233 19.8838 23.0233Z" fill="#F7F7F7"/>
<path fill-rule="evenodd" clip-rule="evenodd" d="M26.1629 23.0233C28.4757 23.0233 30.3489 21.15 30.3489 18.8372C30.3489 16.5244 28.4757 14.6512 26.1629 14.6512C25.671 14.6512 25.2106 14.7558 24.771 14.9023C25.6396 15.9802 26.1629 17.3512 26.1629 18.8372C26.1629 20.3233 25.6396 21.6942 24.771 22.7721C25.2106 22.9186 25.671 23.0233 26.1629 23.0233Z" fill="#F7F7F7"/>
<path fill-rule="evenodd" clip-rule="evenodd" d="M19.8838 24.0698C17.0896 24.0698 11.5117 25.4721 11.5117 28.2558V30.3488C11.5117 30.9244 11.9827 31.3954 12.5582 31.3954H27.2094C27.785 31.3954 28.2559 30.9244 28.2559 30.3488V28.2558C28.2559 25.4721 22.678 24.0698 19.8838 24.0698Z" fill="#F7F7F7"/>
<defs>
<linearGradient id="paint0_linear_389_7" x1="22.5" y1="0" x2="22.5" y2="45" gradientUnits="userSpaceOnUse">
<stop stop-color="#178FC1"/>
<stop offset="1" stop-color="#0677A7" stop-opacity="0.95"/>
</linearGradient>
</defs>
</svg>
