<svg width="45" height="45" viewBox="0 0 45 45" fill="none" xmlns="http://www.w3.org/2000/svg">
<path d="M45 22.5C45 34.9264 34.9264 45 22.5 45C10.0736 45 0 34.9264 0 22.5C0 10.0736 10.0736 0 22.5 0C34.9264 0 45 10.0736 45 22.5Z" fill="url(#paint0_linear_389_8)"/>
<path d="M14.6514 21.4536V25.6396C14.6514 26.5082 15.3525 27.2094 16.2211 27.2094C17.0898 27.2094 17.7909 26.5082 17.7909 25.6396V21.4536C17.7909 20.585 17.0898 19.8838 16.2211 19.8838C15.3525 19.8838 14.6514 20.585 14.6514 21.4536ZM20.9304 21.4536V25.6396C20.9304 26.5082 21.6316 27.2094 22.5002 27.2094C23.3688 27.2094 24.07 26.5082 24.07 25.6396V21.4536C24.07 20.585 23.3688 19.8838 22.5002 19.8838C21.6316 19.8838 20.9304 20.585 20.9304 21.4536ZM14.1281 32.442H30.8723C31.7409 32.442 32.4421 31.7408 32.4421 30.8722C32.4421 30.0036 31.7409 29.3024 30.8723 29.3024H14.1281C13.2595 29.3024 12.5584 30.0036 12.5584 30.8722C12.5584 31.7408 13.2595 32.442 14.1281 32.442ZM27.2095 21.4536V25.6396C27.2095 26.5082 27.9107 27.2094 28.7793 27.2094C29.6479 27.2094 30.3491 26.5082 30.3491 25.6396V21.4536C30.3491 20.585 29.6479 19.8838 28.7793 19.8838C27.9107 19.8838 27.2095 20.585 27.2095 21.4536ZM21.527 10.978L13.2595 15.3315C12.8304 15.5513 12.5584 16.0013 12.5584 16.4827C12.5584 17.2047 13.1444 17.7908 13.8665 17.7908H31.1444C31.856 17.7908 32.4421 17.2047 32.4421 16.4827C32.4421 16.0013 32.17 15.5513 31.7409 15.3315L23.4735 10.978C22.8665 10.6536 22.1339 10.6536 21.527 10.978Z" fill="#F7F7F7"/>
<defs>
<linearGradient id="paint0_linear_389_8" x1="22.5" y1="0" x2="22.5" y2="45" gradientUnits="userSpaceOnUse">
<stop stop-color="#178FC1"/>
<stop offset="1" stop-color="#0677A7" stop-opacity="0.95"/>
</linearGradient>
</defs>
</svg>
