<svg width="45" height="45" viewBox="0 0 45 45" fill="none" xmlns="http://www.w3.org/2000/svg">
<path d="M45 22.5C45 34.9264 34.9264 45 22.5 45C10.0736 45 0 34.9264 0 22.5C0 10.0736 10.0736 0 22.5 0C34.9264 0 45 10.0736 45 22.5Z" fill="#178FC1"/>
<path d="M23.1177 13.5104C21.0142 11.4069 17.8642 10.9779 15.3316 12.2128L19.1304 16.0116C19.5386 16.4197 19.5386 17.079 19.1304 17.4872L17.4665 19.1511C17.0584 19.5697 16.3991 19.5697 15.9909 19.1511L12.1921 15.3523C10.9677 17.8953 11.3967 21.0244 13.5002 23.1279C15.4467 25.0744 18.2932 25.5872 20.7107 24.6767L29.0409 33.0069C30.1188 34.0849 31.856 34.0849 32.9235 33.0069C34.0014 31.929 34.0014 30.1918 32.9235 29.1244L24.6351 20.8256C25.5979 18.3767 25.0956 15.4883 23.1177 13.5104Z" fill="#F7F7F7"/>
</svg>
